<svg width="1250" height="1250" xmlns="http://www.w3.org/2000/svg" xmlns:undefined="http://www.inkscape.org/namespaces/inkscape" version="1.0">

 <metadata id="metadata7">image/svg+xml</metadata>
 <g>
  <title>Layer 1</title>
  <g id="layer1"  >
   <path stroke-dashoffset="0" stroke-miterlimit="2" stroke-linejoin="round" stroke-width="3" fill-rule="nonzero" fill="#0089b7" id="text2332" d="m1121.50001,153l0,146l-390,0c85.33257,48.66739 154.99917,110.16733 209,184.5c53.99906,74.33385 80.99903,153.1671 81,236.5c-0.00097,108.66691 -42.83426,198.66682 -128.5,270c-85.66742,71.33334 -182.83399,106.99998 -291.5,107c-128.66708,-0.00002 -239.66697,-50.49997 -333,-151.5c-93.33345,-100.99977 -140.00007,-218.49965 -140,-352.5c-0.00007,-94.66609 24.4999,-178.33268 73.5,-251c48.9998,-72.66586 105.99975,-122.33248 171,-149c64.99962,-26.66576 152.83286,-39.99908 263.5,-40l485,0zm-457,146l-35,0c-100.00047,0.00077 -179.83373,24.83408 -239.5,74.5c-59.66694,49.66732 -89.50025,127.50057 -89.5,233.5c-0.00025,112.66702 31.33306,212.16692 94,298.5c62.66627,86.33341 135.99952,129.50004 220,129.5c67.33271,0.00004 122.99932,-32.49993 167,-97.5c43.99923,-64.9998 65.99921,-143.49972 66,-235.5c-0.00079,-145.99948 -61.00073,-280.33268 -183,-403l0,0z"/>
  </g>
 </g>
</svg>